<svg width="36" height="35" viewBox="0 0 36 35" fill="none" xmlns="http://www.w3.org/2000/svg">
<path fill-rule="evenodd" clip-rule="evenodd" d="M18 31.5C25.9529 31.5 32.4 25.232 32.4 17.5C32.4 9.76801 25.9529 3.5 18 3.5C10.0471 3.5 3.59998 9.76801 3.59998 17.5C3.59998 25.232 10.0471 31.5 18 31.5ZM19.8 10.5C19.8 9.5335 18.9941 8.75 18 8.75C17.0059 8.75 16.2 9.5335 16.2 10.5V17.5C16.2 17.9641 16.3896 18.4092 16.7272 18.7374L21.8183 23.6872C22.5213 24.3706 23.661 24.3706 24.3639 23.6872C25.0669 23.0038 25.0669 21.8957 24.3639 21.2123L19.8 16.7751V10.5Z" fill="#111827"/>
</svg>
