<svg width="34" height="34" viewBox="0 0 34 34" fill="none" xmlns="http://www.w3.org/2000/svg">
<path d="M30.5996 7.10002C30.5996 6.16114 29.8385 5.40002 28.8996 5.40002H25.2397C24.4087 5.40002 23.6995 6.00083 23.5629 6.82055L22.306 14.3615C22.1833 15.0977 22.5551 15.8278 23.2226 16.1615L25.8545 17.4775C23.9568 22.1932 20.1928 25.9572 15.477 27.8549L14.1611 25.223C13.8274 24.5555 13.0973 24.1837 12.3611 24.3064L4.82013 25.5633C4.00041 25.6999 3.39961 26.4091 3.39961 27.2401V30.9C3.39961 31.8389 4.16072 32.6 5.09961 32.6H8.49961C20.7051 32.6 30.5996 22.7055 30.5996 10.5V7.10002Z" fill="#111827"/>
</svg>
