<svg width="27" height="30" viewBox="0 0 27 30" fill="none" xmlns="http://www.w3.org/2000/svg">
<path fill-rule="evenodd" clip-rule="evenodd" d="M5.63654 6.43934C6.14933 5.85355 6.98072 5.85355 7.4935 6.43934L13.1304 12.8787L18.7672 6.43934C19.28 5.85355 20.1114 5.85355 20.6242 6.43934C21.137 7.02513 21.137 7.97487 20.6242 8.56066L14.9873 15L20.6242 21.4393C21.137 22.0251 21.137 22.9749 20.6242 23.5607C20.1114 24.1464 19.28 24.1464 18.7672 23.5607L13.1304 17.1213L7.4935 23.5607C6.98072 24.1464 6.14933 24.1464 5.63654 23.5607C5.12376 22.9749 5.12376 22.0251 5.63654 21.4393L11.2734 15L5.63654 8.56066C5.12376 7.97487 5.12376 7.02513 5.63654 6.43934Z" fill="#111827"/>
</svg>
